<?xml version="1.0" encoding="UTF-8" standalone="no"?>
<!-- Created with Inkscape (http://www.inkscape.org/) -->

<svg
   width="210mm"
   height="297mm"
   viewBox="0 0 210 297"
   version="1.1"
   id="svg1"
   xml:space="preserve"
   inkscape:version="1.3 (0e150ed6c4, 2023-07-21)"
   sodipodi:docname="kwwebserver-logosvg.svg"
   xmlns:inkscape="http://www.inkscape.org/namespaces/inkscape"
   xmlns:sodipodi="http://sodipodi.sourceforge.net/DTD/sodipodi-0.dtd"
   xmlns="http://www.w3.org/2000/svg"
   xmlns:svg="http://www.w3.org/2000/svg"><sodipodi:namedview
     id="namedview1"
     pagecolor="#ffffff"
     bordercolor="#000000"
     borderopacity="0.25"
     inkscape:showpageshadow="2"
     inkscape:pageopacity="0.0"
     inkscape:pagecheckerboard="0"
     inkscape:deskcolor="#d1d1d1"
     inkscape:document-units="mm"
     showguides="true"
     inkscape:zoom="1.4142136"
     inkscape:cx="403.40442"
     inkscape:cy="340.82547"
     inkscape:window-width="2491"
     inkscape:window-height="1587"
     inkscape:window-x="335"
     inkscape:window-y="111"
     inkscape:window-maximized="0"
     inkscape:current-layer="layer1" /><defs
     id="defs1" /><g
     inkscape:label="Layer 1"
     inkscape:groupmode="layer"
     id="layer1"><rect
       style="fill:#f9f9f9;stroke-width:1.32292;stroke-linecap:round;stroke-dasharray:none"
       id="rect1"
       width="25.267708"
       height="12.766146"
       x="57.943748"
       y="49.807812" /><rect
       style="fill:#f9f9f9;stroke-width:1.32292;stroke-linecap:round;stroke-dasharray:none"
       id="rect2"
       width="24.884592"
       height="14.836849"
       x="90.752083"
       y="49.344791" /><path
       style="fill:#f9f9f9;stroke-width:0.05;stroke-linecap:round;stroke-dasharray:none"
       d="m 238.25,380.37654 c -45.39921,-0.12094 -47.55437,-0.14695 -48.72927,-0.58813 -3.66733,-1.3771 -5.17879,-3.68453 -5.67487,-8.66341 -0.14326,-1.43783 -0.20886,-23.68316 -0.16625,-56.375 l 0.0704,-54 0.60214,-1.5 c 1.1891,-2.96219 4.70523,-5.70904 8.52286,-6.65815 1.15447,-0.28702 23.14699,-0.34185 137.125,-0.34185 130.98555,0 135.80218,0.0161 137.23693,0.45885 3.70112,1.14214 6.40577,3.24293 7.77767,6.04115 l 0.7354,1.5 V 316.625 373 l -0.60117,1.74249 c -0.77145,2.23599 -2.47043,4.02618 -4.65658,4.90656 L 469,380.25 l -48,0.125 c -26.4,0.0688 -48.61128,0.0475 -49.35839,-0.0472 -2.07598,-0.26311 -4.64188,-1.6591 -6.48867,-3.53018 -0.87175,-0.88321 -1.79463,-1.93693 -2.05085,-2.34159 -0.25621,-0.40467 -7.60322,-13.09841 -16.32669,-28.20833 l -15.86084,-27.47257 0.60522,-0.71927 c 0.83359,-0.99066 0.78912,-2.03546 -0.12555,-2.95013 -1.52084,-1.52084 -3.76923,-0.61009 -3.76923,1.52678 0,0.7622 0.15075,1.16456 0.57935,1.54632 l 0.57934,0.51604 -16.18266,28.02754 c -11.99282,20.77094 -16.52575,28.41009 -17.50779,29.50504 -2.31394,2.58001 -5.01996,3.98111 -8.09324,4.19045 -0.6875,0.0468 -22.625,0.0282 -48.75,-0.0414 z m 53.17821,-46.00154 10.22875,-17.625 -0.14271,-10 c -0.0785,-5.5 -0.21114,-13.51562 -0.29478,-17.8125 l -0.15206,-7.8125 h -44.37942 -44.37942 l 0.18427,35.1875 c 0.10135,19.35313 0.20067,35.20446 0.22072,35.22518 0.0475,0.0491 63.92814,0.51519 66.51117,0.48523 L 281.19946,352 Z m 127.73439,17.34109 27.6626,-0.15184 0.14528,-3.78213 c 0.0799,-2.08016 0.18802,-17.9293 0.24025,-35.22031 l 0.0949,-31.43818 -44.40284,0.0632 -44.40284,0.0632 -0.21809,17.77855 -0.21809,17.77854 10.21809,17.65117 10.21809,17.65117 6.5,-0.12075 c 3.575,-0.0664 18.94817,-0.18907 34.1626,-0.27259 z"
       id="path1"
       transform="scale(0.26458333)" /><rect
       style="fill:#ffffff;fill-opacity:1;stroke:none;stroke-width:0.162802;stroke-opacity:1"
       id="rect21"
       width="1.4874791"
       height="15.051686"
       x="-88.009186"
       y="51.538513"
       transform="scale(-1,1)" /><path
       style="fill:none;fill-opacity:1;stroke:#4caf4f;stroke-width:1.32291667;stroke-dasharray:none;stroke-opacity:1"
       d="m 87.358378,83.793924 -8.844233,15.318658 c -0.755109,1.018518 -1.688385,1.712508 -3.058286,1.611228 l -24.027474,0 c -2.100421,-0.02 -2.836922,-1.006644 -2.869983,-2.894123 V 69.370443 c 0.06064,-1.572544 1.635575,-2.783345 3.647197,-2.697603 h 35.152779 l -0.0073,-15.134328 -2.58016,-3.7971 c -0.562486,-0.888574 -1.899495,-1.514392 -3.153486,-1.46193 l -29.850049,7e-6 c -1.65511,-0.019 -2.837906,0.545288 -1.994658,2.103263 L 60.332512,66.67284"
       id="path3"
       sodipodi:nodetypes="cccccccccccccc" /><path
       style="fill:#4caf4f;stroke:none;stroke-width:0.163248;stroke-opacity:1;fill-opacity:1"
       d="m 56.207519,74.414977 h 23.441985 l 0.128358,9.378947 -5.400212,9.320263 -18.082813,-0.12682 z"
       id="path13" /><rect
       style="fill:#ffffff;fill-opacity:1;stroke:none;stroke-width:0.217182;stroke-opacity:1"
       id="rect19"
       width="2.7270451"
       height="14.610792"
       x="85.901924"
       y="51.411976" /><rect
       style="fill:#ffffff;fill-opacity:1;stroke:none;stroke-width:0.162802;stroke-opacity:1"
       id="rect24"
       width="1.4874791"
       height="15.051686"
       x="86.521706"
       y="51.538513" /><path
       style="fill:none;fill-opacity:1;stroke:#4caf4f;stroke-width:1.32291667;stroke-dasharray:none;stroke-opacity:1"
       d="m 87.172517,83.793924 8.844233,15.318658 c 0.755109,1.018518 1.688385,1.712508 3.058286,1.611228 h 24.027474 c 2.10042,-0.02 2.83692,-1.006644 2.86998,-2.894123 V 69.370443 c -0.0606,-1.572544 -1.63557,-2.783345 -3.64719,-2.697603 H 87.172517 l 0.0073,-15.134328 2.58016,-3.7971 c 0.562486,-0.888574 1.899495,-1.514392 3.153486,-1.46193 l 29.850047,7e-6 c 1.65511,-0.019 2.83791,0.545288 1.99466,2.103263 L 114.19838,66.67284"
       id="path24"
       sodipodi:nodetypes="cccccccccccccc" /><path
       style="fill:#4caf4f;fill-opacity:1;stroke:none;stroke-width:0.163248;stroke-opacity:1"
       d="M 118.32338,74.414977 H 94.881391 l -0.128358,9.378947 5.400207,9.320263 18.08282,-0.12682 z"
       id="path25" /><rect
       style="fill:#ffffff;fill-opacity:1;stroke:none;stroke-width:0.217182;stroke-opacity:1"
       id="rect26"
       width="2.7270451"
       height="14.610792"
       x="-88.628967"
       y="51.411976"
       transform="scale(-1,1)" /><circle
       style="fill:#4caf4f;fill-opacity:1;stroke:none;stroke-width:0.079375;stroke-linecap:round;stroke-dasharray:none;stroke-opacity:1"
       id="path27"
       cx="87.263321"
       cy="83.768715"
       r="0.57880557" /><path
       style="fill:#4caf4f;fill-opacity:1;stroke:none;stroke-width:0.883883;stroke-linecap:round;stroke-dasharray:none;stroke-opacity:1"
       d="m 277.80246,251.50905 -49.4112,-0.0448 -19.6201,-33.96014 c -10.79105,-18.67808 -19.92547,-34.5825 -20.2987,-35.34316 -1.87937,-3.83028 -0.35035,-5.9634 4.68652,-6.53808 1.14248,-0.13035 19.53952,-0.17183 59.89686,-0.13504 55.85228,0.0509 58.29518,0.0664 59.39697,0.37712 0.63198,0.17821 1.94454,0.70754 2.91681,1.17628 2.8918,1.39418 3.251,1.80268 8.86982,10.08702 l 4.91877,7.2522 0.69447,-0.0514 0.69447,-0.0514 4.72591,-6.98268 c 2.59924,-3.84047 5.16165,-7.43134 5.69423,-7.9797 1.1031,-1.13578 2.84184,-2.22791 4.59447,-2.88586 2.78399,-1.04512 -1.08309,-0.98776 62.88399,-0.93276 55.22775,0.0475 58.66349,0.0682 59.73202,0.36057 3.69992,1.01229 4.64688,2.92945 3.05555,6.18612 -0.38995,0.79801 -9.53297,16.72444 -20.31785,35.39206 l -19.60886,33.94112 -50.58807,0.0445 -50.58806,0.0445 v -0.97258 -0.97257 h -0.61872 -0.61872 v 1.06066 1.06066 l -0.83969,-0.0439 c -0.46183,-0.0241 -23.07473,-0.064 -50.25089,-0.0887 z m 32.68827,-20.06416 c 0.0813,-0.21876 0.10548,-0.51707 0.0537,-0.66291 -0.18334,-0.51625 -23.75857,-35.27312 -24.19269,-35.66719 l -0.44092,-0.40023 -30.08348,0.0467 c -29.30542,0.0455 -30.09799,0.0555 -30.64416,0.38597 -0.77313,0.46786 -1.00538,0.98015 -0.90276,1.99131 0.0776,0.76439 1.17619,2.55158 10.75289,17.49244 6.4345,10.03863 10.84576,16.75239 11.11834,16.92167 0.40826,0.25353 3.52655,0.28105 32.32155,0.2853 l 31.86969,0.005 z m 103.2343,-0.0884 c 0.28329,-0.26737 5.27184,-7.92402 11.08565,-17.01476 10.53023,-16.46554 10.57061,-16.53222 10.58046,-17.47169 0.009,-0.81602 -0.0557,-0.99949 -0.47656,-1.36179 -0.26755,-0.2303 -0.78462,-0.50153 -1.14905,-0.60274 -1.04324,-0.28972 -59.98938,-0.25557 -60.36952,0.035 -0.44415,0.33946 -24.21957,35.5215 -24.31134,35.97508 -0.20038,0.99031 -2.40031,0.92706 32.24152,0.92706 h 31.88375 z"
       id="path28"
       transform="scale(0.26458333)" /></g></svg>
